<?xml version="1.0" encoding="UTF-8"?>
<!DOCTYPE svg PUBLIC "-//W3C//DTD SVG 1.1//EN" "http://www.w3.org/Graphics/SVG/1.1/DTD/svg11.dtd">
<svg xmlns="http://www.w3.org/2000/svg" version="1.1" width="256px" height="256px" style="shape-rendering:geometricPrecision; text-rendering:geometricPrecision; image-rendering:optimizeQuality; fill-rule:evenodd; clip-rule:evenodd" xmlns:xlink="http://www.w3.org/1999/xlink">
<g><path style="opacity:0.996" fill="#51a2da" d="M 112.5,15.5 C 166.159,11.5684 205.326,33.2351 230,80.5C 247.797,125.377 241.463,166.377 211,203.5C 192.442,223.364 169.609,235.197 142.5,239C 105.107,239.981 67.7734,239.648 30.5,238C 23.522,234.357 18.6887,228.857 16,221.5C 15.3333,185.167 15.3333,148.833 16,112.5C 26.3372,58.3297 58.5039,25.9964 112.5,15.5 Z M 142.5,62.5 C 161.578,60.2853 175.411,67.6186 184,84.5C 187.403,92.1479 187.236,99.6479 183.5,107C 177.376,111.043 172.542,109.876 169,103.5C 170.132,84.9609 161.632,77.4609 143.5,81C 139,82.8333 135.833,86 134,90.5C 133.5,102.162 133.333,113.829 133.5,125.5C 140.54,124.003 147.54,124.17 154.5,126C 158.671,129.854 159.504,134.354 157,139.5C 156.097,140.701 154.931,141.535 153.5,142C 146.544,142.225 139.711,143.059 133,144.5C 132.667,154.833 132.333,165.167 132,175.5C 122.128,201.853 103.628,211.353 76.5,204C 50.6899,189.267 44.8566,168.767 59,142.5C 71.4558,127.954 87.2891,121.954 106.5,124.5C 106.666,130.509 106.499,136.509 106,142.5C 99.5809,143.313 93.0809,143.813 86.5,144C 70.9892,149.856 65.8226,160.689 71,176.5C 78.0795,188.197 88.2462,192.03 101.5,188C 107.82,185.014 111.987,180.181 114,173.5C 114.069,145.139 114.736,116.806 116,88.5C 120.087,74.9123 128.92,66.2457 142.5,62.5 Z"/></g>
</svg>
